<mxfile host="app.diagrams.net" modified="2023-12-13T08:09:07.927Z" agent="Mozilla/5.0 (Windows NT 10.0; Win64; x64) AppleWebKit/537.36 (KHTML, like Gecko) Chrome/119.0.0.0 Safari/537.36" etag="DgmFx9t0MUsppTyGPykD" version="22.1.7" type="github">
  <diagram name="第 1 页" id="k30AQ0_j8heJgkMwq7Cr">
    <mxGraphModel dx="1434" dy="780" grid="1" gridSize="10" guides="1" tooltips="1" connect="1" arrows="1" fold="1" page="1" pageScale="1" pageWidth="4681" pageHeight="3300" math="0" shadow="0">
      <root>
        <mxCell id="0" />
        <mxCell id="1" parent="0" />
        <mxCell id="hCHVj-DYUr4DhaBlKn4_-14" style="edgeStyle=orthogonalEdgeStyle;rounded=0;orthogonalLoop=1;jettySize=auto;html=1;exitX=0.5;exitY=1;exitDx=0;exitDy=0;entryX=0.5;entryY=0;entryDx=0;entryDy=0;" parent="1" source="hCHVj-DYUr4DhaBlKn4_-1" target="hCHVj-DYUr4DhaBlKn4_-4" edge="1">
          <mxGeometry relative="1" as="geometry" />
        </mxCell>
        <mxCell id="hCHVj-DYUr4DhaBlKn4_-1" value="好友拜年" style="rounded=0;whiteSpace=wrap;html=1;" parent="1" vertex="1">
          <mxGeometry x="220" y="90" width="190" height="40" as="geometry" />
        </mxCell>
        <mxCell id="hCHVj-DYUr4DhaBlKn4_-15" style="edgeStyle=orthogonalEdgeStyle;rounded=0;orthogonalLoop=1;jettySize=auto;html=1;" parent="1" source="hCHVj-DYUr4DhaBlKn4_-4" target="hCHVj-DYUr4DhaBlKn4_-5" edge="1">
          <mxGeometry relative="1" as="geometry" />
        </mxCell>
        <mxCell id="hCHVj-DYUr4DhaBlKn4_-17" style="edgeStyle=orthogonalEdgeStyle;rounded=0;orthogonalLoop=1;jettySize=auto;html=1;exitX=0.5;exitY=1;exitDx=0;exitDy=0;" parent="1" source="hCHVj-DYUr4DhaBlKn4_-4" target="hCHVj-DYUr4DhaBlKn4_-7" edge="1">
          <mxGeometry relative="1" as="geometry" />
        </mxCell>
        <mxCell id="hCHVj-DYUr4DhaBlKn4_-4" value="是好友" style="rhombus;whiteSpace=wrap;html=1;" parent="1" vertex="1">
          <mxGeometry x="252.5" y="182.5" width="125" height="45" as="geometry" />
        </mxCell>
        <mxCell id="hCHVj-DYUr4DhaBlKn4_-5" value="返回：非好友" style="rounded=0;whiteSpace=wrap;html=1;" parent="1" vertex="1">
          <mxGeometry x="450" y="190" width="120" height="30" as="geometry" />
        </mxCell>
        <mxCell id="hCHVj-DYUr4DhaBlKn4_-18" style="edgeStyle=orthogonalEdgeStyle;rounded=0;orthogonalLoop=1;jettySize=auto;html=1;exitX=0.5;exitY=1;exitDx=0;exitDy=0;entryX=0.5;entryY=0;entryDx=0;entryDy=0;" parent="1" source="hCHVj-DYUr4DhaBlKn4_-7" target="hCHVj-DYUr4DhaBlKn4_-8" edge="1">
          <mxGeometry relative="1" as="geometry" />
        </mxCell>
        <mxCell id="hCHVj-DYUr4DhaBlKn4_-7" value="获取玩家拜年数据" style="rounded=0;whiteSpace=wrap;html=1;" parent="1" vertex="1">
          <mxGeometry x="255" y="270" width="120" height="30" as="geometry" />
        </mxCell>
        <mxCell id="hCHVj-DYUr4DhaBlKn4_-19" style="edgeStyle=orthogonalEdgeStyle;rounded=0;orthogonalLoop=1;jettySize=auto;html=1;exitX=0.5;exitY=1;exitDx=0;exitDy=0;entryX=0.5;entryY=0;entryDx=0;entryDy=0;" parent="1" target="hCHVj-DYUr4DhaBlKn4_-11" edge="1">
          <mxGeometry relative="1" as="geometry">
            <mxPoint x="315" y="470" as="sourcePoint" />
          </mxGeometry>
        </mxCell>
        <mxCell id="hCHVj-DYUr4DhaBlKn4_-22" style="edgeStyle=orthogonalEdgeStyle;rounded=0;orthogonalLoop=1;jettySize=auto;html=1;exitX=1;exitY=0.5;exitDx=0;exitDy=0;" parent="1" source="hCHVj-DYUr4DhaBlKn4_-8" target="hCHVj-DYUr4DhaBlKn4_-9" edge="1">
          <mxGeometry relative="1" as="geometry" />
        </mxCell>
        <mxCell id="hCHVj-DYUr4DhaBlKn4_-32" style="edgeStyle=orthogonalEdgeStyle;rounded=0;orthogonalLoop=1;jettySize=auto;html=1;exitX=0.5;exitY=1;exitDx=0;exitDy=0;" parent="1" source="hCHVj-DYUr4DhaBlKn4_-8" target="hCHVj-DYUr4DhaBlKn4_-28" edge="1">
          <mxGeometry relative="1" as="geometry" />
        </mxCell>
        <mxCell id="hCHVj-DYUr4DhaBlKn4_-8" value="是否超过次数" style="rhombus;whiteSpace=wrap;html=1;" parent="1" vertex="1">
          <mxGeometry x="247.5" y="340" width="135" height="50" as="geometry" />
        </mxCell>
        <mxCell id="hCHVj-DYUr4DhaBlKn4_-9" value="返回：已超次数" style="rounded=0;whiteSpace=wrap;html=1;" parent="1" vertex="1">
          <mxGeometry x="450" y="350" width="120" height="30" as="geometry" />
        </mxCell>
        <mxCell id="hCHVj-DYUr4DhaBlKn4_-20" style="edgeStyle=orthogonalEdgeStyle;rounded=0;orthogonalLoop=1;jettySize=auto;html=1;exitX=0.5;exitY=1;exitDx=0;exitDy=0;" parent="1" source="hCHVj-DYUr4DhaBlKn4_-11" target="hCHVj-DYUr4DhaBlKn4_-12" edge="1">
          <mxGeometry relative="1" as="geometry" />
        </mxCell>
        <mxCell id="hCHVj-DYUr4DhaBlKn4_-11" value="记录次数" style="rounded=0;whiteSpace=wrap;html=1;" parent="1" vertex="1">
          <mxGeometry x="255" y="500" width="120" height="30" as="geometry" />
        </mxCell>
        <mxCell id="hCHVj-DYUr4DhaBlKn4_-21" style="edgeStyle=orthogonalEdgeStyle;rounded=0;orthogonalLoop=1;jettySize=auto;html=1;exitX=0.5;exitY=1;exitDx=0;exitDy=0;entryX=0.5;entryY=0;entryDx=0;entryDy=0;" parent="1" source="hCHVj-DYUr4DhaBlKn4_-12" target="hCHVj-DYUr4DhaBlKn4_-13" edge="1">
          <mxGeometry relative="1" as="geometry" />
        </mxCell>
        <mxCell id="hCHVj-DYUr4DhaBlKn4_-12" value="发送邮件" style="rounded=0;whiteSpace=wrap;html=1;" parent="1" vertex="1">
          <mxGeometry x="255" y="560" width="120" height="30" as="geometry" />
        </mxCell>
        <mxCell id="hCHVj-DYUr4DhaBlKn4_-13" value="返回成功" style="rounded=0;whiteSpace=wrap;html=1;" parent="1" vertex="1">
          <mxGeometry x="255" y="620" width="120" height="30" as="geometry" />
        </mxCell>
        <mxCell id="hCHVj-DYUr4DhaBlKn4_-16" value="否" style="text;html=1;align=center;verticalAlign=middle;resizable=0;points=[];autosize=1;strokeColor=none;fillColor=none;" parent="1" vertex="1">
          <mxGeometry x="390" y="180" width="40" height="30" as="geometry" />
        </mxCell>
        <mxCell id="hCHVj-DYUr4DhaBlKn4_-23" value="否" style="text;html=1;align=center;verticalAlign=middle;resizable=0;points=[];autosize=1;strokeColor=none;fillColor=none;" parent="1" vertex="1">
          <mxGeometry x="390" y="340" width="40" height="30" as="geometry" />
        </mxCell>
        <mxCell id="hCHVj-DYUr4DhaBlKn4_-24" value="" style="shape=curlyBracket;whiteSpace=wrap;html=1;rounded=1;labelPosition=left;verticalLabelPosition=middle;align=right;verticalAlign=middle;" parent="1" vertex="1">
          <mxGeometry x="170" y="145" width="20" height="95" as="geometry" />
        </mxCell>
        <mxCell id="hCHVj-DYUr4DhaBlKn4_-25" value="community" style="text;html=1;align=center;verticalAlign=middle;resizable=0;points=[];autosize=1;strokeColor=none;fillColor=none;" parent="1" vertex="1">
          <mxGeometry x="80" y="177.5" width="80" height="30" as="geometry" />
        </mxCell>
        <mxCell id="hCHVj-DYUr4DhaBlKn4_-26" value="" style="shape=curlyBracket;whiteSpace=wrap;html=1;rounded=1;labelPosition=left;verticalLabelPosition=middle;align=right;verticalAlign=middle;" parent="1" vertex="1">
          <mxGeometry x="170" y="270" width="20" height="380" as="geometry" />
        </mxCell>
        <mxCell id="hCHVj-DYUr4DhaBlKn4_-27" value="logic" style="text;html=1;align=center;verticalAlign=middle;resizable=0;points=[];autosize=1;strokeColor=none;fillColor=none;" parent="1" vertex="1">
          <mxGeometry x="95" y="395" width="50" height="30" as="geometry" />
        </mxCell>
        <mxCell id="hCHVj-DYUr4DhaBlKn4_-28" value="未点过赞" style="rhombus;whiteSpace=wrap;html=1;" parent="1" vertex="1">
          <mxGeometry x="247.5" y="420" width="135" height="50" as="geometry" />
        </mxCell>
        <mxCell id="hCHVj-DYUr4DhaBlKn4_-29" style="edgeStyle=orthogonalEdgeStyle;rounded=0;orthogonalLoop=1;jettySize=auto;html=1;exitX=1;exitY=0.5;exitDx=0;exitDy=0;" parent="1" target="hCHVj-DYUr4DhaBlKn4_-30" edge="1">
          <mxGeometry relative="1" as="geometry">
            <mxPoint x="382.5" y="445" as="sourcePoint" />
          </mxGeometry>
        </mxCell>
        <mxCell id="hCHVj-DYUr4DhaBlKn4_-30" value="返回：当日已点过赞" style="rounded=0;whiteSpace=wrap;html=1;" parent="1" vertex="1">
          <mxGeometry x="449.5" y="430" width="120" height="30" as="geometry" />
        </mxCell>
        <mxCell id="hCHVj-DYUr4DhaBlKn4_-31" value="否" style="text;html=1;align=center;verticalAlign=middle;resizable=0;points=[];autosize=1;strokeColor=none;fillColor=none;" parent="1" vertex="1">
          <mxGeometry x="389.5" y="420" width="40" height="30" as="geometry" />
        </mxCell>
        <mxCell id="Fgh959vgi-olLZx6snVr-22" style="edgeStyle=orthogonalEdgeStyle;rounded=0;orthogonalLoop=1;jettySize=auto;html=1;exitX=0.5;exitY=1;exitDx=0;exitDy=0;entryX=0.5;entryY=0;entryDx=0;entryDy=0;" edge="1" parent="1" source="Fgh959vgi-olLZx6snVr-1" target="Fgh959vgi-olLZx6snVr-3">
          <mxGeometry relative="1" as="geometry" />
        </mxCell>
        <mxCell id="Fgh959vgi-olLZx6snVr-1" value="发红包流程" style="rounded=0;whiteSpace=wrap;html=1;" vertex="1" parent="1">
          <mxGeometry x="850" y="90" width="330" height="40" as="geometry" />
        </mxCell>
        <mxCell id="Fgh959vgi-olLZx6snVr-23" style="edgeStyle=orthogonalEdgeStyle;rounded=0;orthogonalLoop=1;jettySize=auto;html=1;exitX=0.5;exitY=1;exitDx=0;exitDy=0;" edge="1" parent="1" source="Fgh959vgi-olLZx6snVr-3" target="Fgh959vgi-olLZx6snVr-5">
          <mxGeometry relative="1" as="geometry" />
        </mxCell>
        <mxCell id="Fgh959vgi-olLZx6snVr-33" style="edgeStyle=orthogonalEdgeStyle;rounded=0;orthogonalLoop=1;jettySize=auto;html=1;exitX=1;exitY=0.5;exitDx=0;exitDy=0;" edge="1" parent="1" source="Fgh959vgi-olLZx6snVr-3" target="Fgh959vgi-olLZx6snVr-6">
          <mxGeometry relative="1" as="geometry" />
        </mxCell>
        <mxCell id="Fgh959vgi-olLZx6snVr-3" value="红包参数校验" style="rhombus;whiteSpace=wrap;html=1;" vertex="1" parent="1">
          <mxGeometry x="940" y="150" width="150" height="60" as="geometry" />
        </mxCell>
        <mxCell id="Fgh959vgi-olLZx6snVr-4" value="校验红包类型&lt;br&gt;是否满足设定&lt;br&gt;以及活动是否生效" style="text;html=1;align=center;verticalAlign=middle;resizable=0;points=[];autosize=1;strokeColor=none;fillColor=none;" vertex="1" parent="1">
          <mxGeometry x="760" y="150" width="120" height="60" as="geometry" />
        </mxCell>
        <mxCell id="Fgh959vgi-olLZx6snVr-24" style="edgeStyle=orthogonalEdgeStyle;rounded=0;orthogonalLoop=1;jettySize=auto;html=1;exitX=0.5;exitY=1;exitDx=0;exitDy=0;" edge="1" parent="1" source="Fgh959vgi-olLZx6snVr-5" target="Fgh959vgi-olLZx6snVr-8">
          <mxGeometry relative="1" as="geometry" />
        </mxCell>
        <mxCell id="Fgh959vgi-olLZx6snVr-34" style="edgeStyle=orthogonalEdgeStyle;rounded=0;orthogonalLoop=1;jettySize=auto;html=1;exitX=1;exitY=0.5;exitDx=0;exitDy=0;" edge="1" parent="1" source="Fgh959vgi-olLZx6snVr-5" target="Fgh959vgi-olLZx6snVr-7">
          <mxGeometry relative="1" as="geometry" />
        </mxCell>
        <mxCell id="Fgh959vgi-olLZx6snVr-5" value="可发送次数满足" style="rhombus;whiteSpace=wrap;html=1;" vertex="1" parent="1">
          <mxGeometry x="940" y="230" width="150" height="60" as="geometry" />
        </mxCell>
        <mxCell id="Fgh959vgi-olLZx6snVr-6" value="失败：参数异常" style="rounded=0;whiteSpace=wrap;html=1;" vertex="1" parent="1">
          <mxGeometry x="1170" y="150" width="120" height="60" as="geometry" />
        </mxCell>
        <mxCell id="Fgh959vgi-olLZx6snVr-7" value="失败：次数达到上限" style="rounded=0;whiteSpace=wrap;html=1;" vertex="1" parent="1">
          <mxGeometry x="1170" y="230" width="120" height="60" as="geometry" />
        </mxCell>
        <mxCell id="Fgh959vgi-olLZx6snVr-25" style="edgeStyle=orthogonalEdgeStyle;rounded=0;orthogonalLoop=1;jettySize=auto;html=1;exitX=0.5;exitY=1;exitDx=0;exitDy=0;" edge="1" parent="1" source="Fgh959vgi-olLZx6snVr-8" target="Fgh959vgi-olLZx6snVr-10">
          <mxGeometry relative="1" as="geometry" />
        </mxCell>
        <mxCell id="Fgh959vgi-olLZx6snVr-35" style="edgeStyle=orthogonalEdgeStyle;rounded=0;orthogonalLoop=1;jettySize=auto;html=1;exitX=1;exitY=0.5;exitDx=0;exitDy=0;" edge="1" parent="1" source="Fgh959vgi-olLZx6snVr-8" target="Fgh959vgi-olLZx6snVr-9">
          <mxGeometry relative="1" as="geometry" />
        </mxCell>
        <mxCell id="Fgh959vgi-olLZx6snVr-8" value="尽可能保证对方&lt;br&gt;当日可收取次数" style="rhombus;whiteSpace=wrap;html=1;" vertex="1" parent="1">
          <mxGeometry x="940" y="310" width="150" height="60" as="geometry" />
        </mxCell>
        <mxCell id="Fgh959vgi-olLZx6snVr-9" value="失败：对方达到上限&lt;br&gt;当日达到上限" style="rounded=0;whiteSpace=wrap;html=1;" vertex="1" parent="1">
          <mxGeometry x="1170" y="310" width="120" height="60" as="geometry" />
        </mxCell>
        <mxCell id="Fgh959vgi-olLZx6snVr-26" style="edgeStyle=orthogonalEdgeStyle;rounded=0;orthogonalLoop=1;jettySize=auto;html=1;exitX=0.5;exitY=1;exitDx=0;exitDy=0;" edge="1" parent="1" source="Fgh959vgi-olLZx6snVr-10" target="Fgh959vgi-olLZx6snVr-14">
          <mxGeometry relative="1" as="geometry" />
        </mxCell>
        <mxCell id="Fgh959vgi-olLZx6snVr-36" style="edgeStyle=orthogonalEdgeStyle;rounded=0;orthogonalLoop=1;jettySize=auto;html=1;exitX=1;exitY=0.5;exitDx=0;exitDy=0;" edge="1" parent="1" source="Fgh959vgi-olLZx6snVr-10" target="Fgh959vgi-olLZx6snVr-11">
          <mxGeometry relative="1" as="geometry" />
        </mxCell>
        <mxCell id="Fgh959vgi-olLZx6snVr-10" value="尽可能保证对方&lt;br&gt;总共收取次数" style="rhombus;whiteSpace=wrap;html=1;" vertex="1" parent="1">
          <mxGeometry x="940" y="390" width="150" height="60" as="geometry" />
        </mxCell>
        <mxCell id="Fgh959vgi-olLZx6snVr-11" value="失败：对方达到上限&lt;br&gt;总次数达到上限" style="rounded=0;whiteSpace=wrap;html=1;" vertex="1" parent="1">
          <mxGeometry x="1170" y="390" width="120" height="60" as="geometry" />
        </mxCell>
        <mxCell id="Fgh959vgi-olLZx6snVr-27" style="edgeStyle=orthogonalEdgeStyle;rounded=0;orthogonalLoop=1;jettySize=auto;html=1;exitX=0.5;exitY=1;exitDx=0;exitDy=0;" edge="1" parent="1" source="Fgh959vgi-olLZx6snVr-14" target="Fgh959vgi-olLZx6snVr-16">
          <mxGeometry relative="1" as="geometry" />
        </mxCell>
        <mxCell id="Fgh959vgi-olLZx6snVr-37" style="edgeStyle=orthogonalEdgeStyle;rounded=0;orthogonalLoop=1;jettySize=auto;html=1;exitX=1;exitY=0.5;exitDx=0;exitDy=0;" edge="1" parent="1" source="Fgh959vgi-olLZx6snVr-14" target="Fgh959vgi-olLZx6snVr-15">
          <mxGeometry relative="1" as="geometry" />
        </mxCell>
        <mxCell id="Fgh959vgi-olLZx6snVr-14" value="货币数量满足" style="rhombus;whiteSpace=wrap;html=1;" vertex="1" parent="1">
          <mxGeometry x="940" y="470" width="150" height="60" as="geometry" />
        </mxCell>
        <mxCell id="Fgh959vgi-olLZx6snVr-15" value="失败：货币不足" style="rounded=0;whiteSpace=wrap;html=1;" vertex="1" parent="1">
          <mxGeometry x="1170" y="470" width="120" height="60" as="geometry" />
        </mxCell>
        <mxCell id="Fgh959vgi-olLZx6snVr-28" style="edgeStyle=orthogonalEdgeStyle;rounded=0;orthogonalLoop=1;jettySize=auto;html=1;exitX=0.5;exitY=1;exitDx=0;exitDy=0;" edge="1" parent="1" source="Fgh959vgi-olLZx6snVr-16" target="Fgh959vgi-olLZx6snVr-17">
          <mxGeometry relative="1" as="geometry" />
        </mxCell>
        <mxCell id="Fgh959vgi-olLZx6snVr-16" value="扣货币" style="rounded=0;whiteSpace=wrap;html=1;" vertex="1" parent="1">
          <mxGeometry x="955" y="550" width="120" height="30" as="geometry" />
        </mxCell>
        <mxCell id="Fgh959vgi-olLZx6snVr-29" style="edgeStyle=orthogonalEdgeStyle;rounded=0;orthogonalLoop=1;jettySize=auto;html=1;exitX=0.5;exitY=1;exitDx=0;exitDy=0;" edge="1" parent="1" source="Fgh959vgi-olLZx6snVr-17" target="Fgh959vgi-olLZx6snVr-18">
          <mxGeometry relative="1" as="geometry" />
        </mxCell>
        <mxCell id="Fgh959vgi-olLZx6snVr-17" value="更新发送红包次数" style="rounded=0;whiteSpace=wrap;html=1;" vertex="1" parent="1">
          <mxGeometry x="955" y="601" width="120" height="40" as="geometry" />
        </mxCell>
        <mxCell id="Fgh959vgi-olLZx6snVr-30" style="edgeStyle=orthogonalEdgeStyle;rounded=0;orthogonalLoop=1;jettySize=auto;html=1;exitX=0.5;exitY=1;exitDx=0;exitDy=0;" edge="1" parent="1" source="Fgh959vgi-olLZx6snVr-18" target="Fgh959vgi-olLZx6snVr-19">
          <mxGeometry relative="1" as="geometry" />
        </mxCell>
        <mxCell id="Fgh959vgi-olLZx6snVr-18" value="更新对方收取次数" style="rounded=0;whiteSpace=wrap;html=1;" vertex="1" parent="1">
          <mxGeometry x="955" y="656" width="120" height="40" as="geometry" />
        </mxCell>
        <mxCell id="Fgh959vgi-olLZx6snVr-31" style="edgeStyle=orthogonalEdgeStyle;rounded=0;orthogonalLoop=1;jettySize=auto;html=1;exitX=0.5;exitY=1;exitDx=0;exitDy=0;entryX=0.5;entryY=0;entryDx=0;entryDy=0;" edge="1" parent="1" source="Fgh959vgi-olLZx6snVr-19" target="Fgh959vgi-olLZx6snVr-20">
          <mxGeometry relative="1" as="geometry" />
        </mxCell>
        <mxCell id="Fgh959vgi-olLZx6snVr-19" value="新增一条红包记录" style="rounded=0;whiteSpace=wrap;html=1;" vertex="1" parent="1">
          <mxGeometry x="955" y="707" width="120" height="40" as="geometry" />
        </mxCell>
        <mxCell id="Fgh959vgi-olLZx6snVr-32" style="edgeStyle=orthogonalEdgeStyle;rounded=0;orthogonalLoop=1;jettySize=auto;html=1;exitX=0.5;exitY=1;exitDx=0;exitDy=0;" edge="1" parent="1" source="Fgh959vgi-olLZx6snVr-20" target="Fgh959vgi-olLZx6snVr-21">
          <mxGeometry relative="1" as="geometry" />
        </mxCell>
        <mxCell id="Fgh959vgi-olLZx6snVr-20" value="通知对方领取红包" style="rounded=0;whiteSpace=wrap;html=1;" vertex="1" parent="1">
          <mxGeometry x="955" y="757" width="120" height="40" as="geometry" />
        </mxCell>
        <mxCell id="Fgh959vgi-olLZx6snVr-21" value="结束" style="rounded=0;whiteSpace=wrap;html=1;" vertex="1" parent="1">
          <mxGeometry x="955" y="807" width="120" height="29" as="geometry" />
        </mxCell>
        <mxCell id="Fgh959vgi-olLZx6snVr-71" value="收红包流程" style="rounded=0;whiteSpace=wrap;html=1;" vertex="1" parent="1">
          <mxGeometry x="1620" y="90" width="330" height="40" as="geometry" />
        </mxCell>
        <mxCell id="Fgh959vgi-olLZx6snVr-85" style="edgeStyle=orthogonalEdgeStyle;rounded=0;orthogonalLoop=1;jettySize=auto;html=1;exitX=0.5;exitY=1;exitDx=0;exitDy=0;entryX=0.5;entryY=0;entryDx=0;entryDy=0;" edge="1" parent="1" source="Fgh959vgi-olLZx6snVr-73" target="Fgh959vgi-olLZx6snVr-75">
          <mxGeometry relative="1" as="geometry" />
        </mxCell>
        <mxCell id="Fgh959vgi-olLZx6snVr-99" style="edgeStyle=orthogonalEdgeStyle;rounded=0;orthogonalLoop=1;jettySize=auto;html=1;exitX=1;exitY=0.5;exitDx=0;exitDy=0;" edge="1" parent="1" source="Fgh959vgi-olLZx6snVr-73" target="Fgh959vgi-olLZx6snVr-74">
          <mxGeometry relative="1" as="geometry" />
        </mxCell>
        <mxCell id="Fgh959vgi-olLZx6snVr-73" value="玩家当日&lt;br&gt;可领取次数满足" style="rhombus;whiteSpace=wrap;html=1;" vertex="1" parent="1">
          <mxGeometry x="1706" y="241" width="157.5" height="65" as="geometry" />
        </mxCell>
        <mxCell id="Fgh959vgi-olLZx6snVr-74" value="失败：当日次数达到上限" style="rounded=0;whiteSpace=wrap;html=1;" vertex="1" parent="1">
          <mxGeometry x="1929.75" y="244" width="120" height="60" as="geometry" />
        </mxCell>
        <mxCell id="Fgh959vgi-olLZx6snVr-86" style="edgeStyle=orthogonalEdgeStyle;rounded=0;orthogonalLoop=1;jettySize=auto;html=1;exitX=0.5;exitY=1;exitDx=0;exitDy=0;entryX=0.5;entryY=0;entryDx=0;entryDy=0;" edge="1" parent="1" source="Fgh959vgi-olLZx6snVr-75" target="Fgh959vgi-olLZx6snVr-77">
          <mxGeometry relative="1" as="geometry" />
        </mxCell>
        <mxCell id="Fgh959vgi-olLZx6snVr-100" style="edgeStyle=orthogonalEdgeStyle;rounded=0;orthogonalLoop=1;jettySize=auto;html=1;exitX=1;exitY=0.5;exitDx=0;exitDy=0;" edge="1" parent="1" source="Fgh959vgi-olLZx6snVr-75" target="Fgh959vgi-olLZx6snVr-76">
          <mxGeometry relative="1" as="geometry" />
        </mxCell>
        <mxCell id="Fgh959vgi-olLZx6snVr-75" value="玩家总计&lt;br&gt;可领取次数满足" style="rhombus;whiteSpace=wrap;html=1;" vertex="1" parent="1">
          <mxGeometry x="1706" y="328.5" width="157.5" height="65" as="geometry" />
        </mxCell>
        <mxCell id="Fgh959vgi-olLZx6snVr-76" value="失败：总次数达到上限" style="rounded=0;whiteSpace=wrap;html=1;" vertex="1" parent="1">
          <mxGeometry x="1929.75" y="331" width="120" height="60" as="geometry" />
        </mxCell>
        <mxCell id="Fgh959vgi-olLZx6snVr-87" style="edgeStyle=orthogonalEdgeStyle;rounded=0;orthogonalLoop=1;jettySize=auto;html=1;exitX=0.5;exitY=1;exitDx=0;exitDy=0;" edge="1" parent="1" source="Fgh959vgi-olLZx6snVr-77" target="Fgh959vgi-olLZx6snVr-80">
          <mxGeometry relative="1" as="geometry" />
        </mxCell>
        <mxCell id="Fgh959vgi-olLZx6snVr-102" style="edgeStyle=orthogonalEdgeStyle;rounded=0;orthogonalLoop=1;jettySize=auto;html=1;exitX=1;exitY=0.5;exitDx=0;exitDy=0;" edge="1" parent="1" source="Fgh959vgi-olLZx6snVr-77" target="Fgh959vgi-olLZx6snVr-78">
          <mxGeometry relative="1" as="geometry" />
        </mxCell>
        <mxCell id="Fgh959vgi-olLZx6snVr-77" value="红包记录正常" style="rhombus;whiteSpace=wrap;html=1;" vertex="1" parent="1">
          <mxGeometry x="1706" y="416" width="157.5" height="65" as="geometry" />
        </mxCell>
        <mxCell id="Fgh959vgi-olLZx6snVr-78" value="失败：参数错误" style="rounded=0;whiteSpace=wrap;html=1;" vertex="1" parent="1">
          <mxGeometry x="1929.75" y="418.5" width="120" height="60" as="geometry" />
        </mxCell>
        <mxCell id="Fgh959vgi-olLZx6snVr-88" style="edgeStyle=orthogonalEdgeStyle;rounded=0;orthogonalLoop=1;jettySize=auto;html=1;exitX=0.5;exitY=1;exitDx=0;exitDy=0;" edge="1" parent="1" source="Fgh959vgi-olLZx6snVr-80" target="Fgh959vgi-olLZx6snVr-81">
          <mxGeometry relative="1" as="geometry" />
        </mxCell>
        <mxCell id="Fgh959vgi-olLZx6snVr-80" value="领取红包" style="rounded=0;whiteSpace=wrap;html=1;" vertex="1" parent="1">
          <mxGeometry x="1724.75" y="501" width="120" height="40" as="geometry" />
        </mxCell>
        <mxCell id="Fgh959vgi-olLZx6snVr-89" style="edgeStyle=orthogonalEdgeStyle;rounded=0;orthogonalLoop=1;jettySize=auto;html=1;exitX=0.5;exitY=1;exitDx=0;exitDy=0;" edge="1" parent="1" source="Fgh959vgi-olLZx6snVr-81" target="Fgh959vgi-olLZx6snVr-82">
          <mxGeometry relative="1" as="geometry" />
        </mxCell>
        <mxCell id="Fgh959vgi-olLZx6snVr-81" value="更新领取次数" style="rounded=0;whiteSpace=wrap;html=1;" vertex="1" parent="1">
          <mxGeometry x="1724.75" y="561" width="120" height="40" as="geometry" />
        </mxCell>
        <mxCell id="Fgh959vgi-olLZx6snVr-90" style="edgeStyle=orthogonalEdgeStyle;rounded=0;orthogonalLoop=1;jettySize=auto;html=1;exitX=0.5;exitY=1;exitDx=0;exitDy=0;entryX=0.5;entryY=0;entryDx=0;entryDy=0;" edge="1" parent="1" source="Fgh959vgi-olLZx6snVr-82" target="Fgh959vgi-olLZx6snVr-83">
          <mxGeometry relative="1" as="geometry" />
        </mxCell>
        <mxCell id="Fgh959vgi-olLZx6snVr-82" value="更新红包状态" style="rounded=0;whiteSpace=wrap;html=1;" vertex="1" parent="1">
          <mxGeometry x="1724.75" y="621" width="120" height="40" as="geometry" />
        </mxCell>
        <mxCell id="Fgh959vgi-olLZx6snVr-83" value="结束" style="rounded=0;whiteSpace=wrap;html=1;" vertex="1" parent="1">
          <mxGeometry x="1724.75" y="681" width="120" height="40" as="geometry" />
        </mxCell>
        <mxCell id="Fgh959vgi-olLZx6snVr-91" value="否" style="text;html=1;align=center;verticalAlign=middle;resizable=0;points=[];autosize=1;strokeColor=none;fillColor=none;" vertex="1" parent="1">
          <mxGeometry x="1100" y="150" width="40" height="30" as="geometry" />
        </mxCell>
        <mxCell id="Fgh959vgi-olLZx6snVr-94" value="否" style="text;html=1;align=center;verticalAlign=middle;resizable=0;points=[];autosize=1;strokeColor=none;fillColor=none;" vertex="1" parent="1">
          <mxGeometry x="1100" y="230" width="40" height="30" as="geometry" />
        </mxCell>
        <mxCell id="Fgh959vgi-olLZx6snVr-95" value="否" style="text;html=1;align=center;verticalAlign=middle;resizable=0;points=[];autosize=1;strokeColor=none;fillColor=none;" vertex="1" parent="1">
          <mxGeometry x="1100" y="310" width="40" height="30" as="geometry" />
        </mxCell>
        <mxCell id="Fgh959vgi-olLZx6snVr-96" value="否" style="text;html=1;align=center;verticalAlign=middle;resizable=0;points=[];autosize=1;strokeColor=none;fillColor=none;" vertex="1" parent="1">
          <mxGeometry x="1100" y="390" width="40" height="30" as="geometry" />
        </mxCell>
        <mxCell id="Fgh959vgi-olLZx6snVr-97" value="否" style="text;html=1;align=center;verticalAlign=middle;resizable=0;points=[];autosize=1;strokeColor=none;fillColor=none;" vertex="1" parent="1">
          <mxGeometry x="1100" y="470" width="40" height="30" as="geometry" />
        </mxCell>
        <mxCell id="Fgh959vgi-olLZx6snVr-98" value="否" style="text;html=1;align=center;verticalAlign=middle;resizable=0;points=[];autosize=1;strokeColor=none;fillColor=none;" vertex="1" parent="1">
          <mxGeometry x="1863.5" y="241" width="40" height="30" as="geometry" />
        </mxCell>
        <mxCell id="Fgh959vgi-olLZx6snVr-101" value="否" style="text;html=1;align=center;verticalAlign=middle;resizable=0;points=[];autosize=1;strokeColor=none;fillColor=none;" vertex="1" parent="1">
          <mxGeometry x="1863.5" y="331" width="40" height="30" as="geometry" />
        </mxCell>
        <mxCell id="Fgh959vgi-olLZx6snVr-103" value="否" style="text;html=1;align=center;verticalAlign=middle;resizable=0;points=[];autosize=1;strokeColor=none;fillColor=none;" vertex="1" parent="1">
          <mxGeometry x="1863.5" y="418.5" width="40" height="30" as="geometry" />
        </mxCell>
        <mxCell id="Fgh959vgi-olLZx6snVr-105" value="红包退回" style="rounded=0;whiteSpace=wrap;html=1;" vertex="1" parent="1">
          <mxGeometry x="2200" y="87.5" width="330" height="40" as="geometry" />
        </mxCell>
        <mxCell id="Fgh959vgi-olLZx6snVr-132" style="edgeStyle=orthogonalEdgeStyle;rounded=0;orthogonalLoop=1;jettySize=auto;html=1;exitX=0.5;exitY=1;exitDx=0;exitDy=0;" edge="1" parent="1" source="Fgh959vgi-olLZx6snVr-128" target="Fgh959vgi-olLZx6snVr-130">
          <mxGeometry relative="1" as="geometry" />
        </mxCell>
        <mxCell id="Fgh959vgi-olLZx6snVr-128" value="玩家下次重新登录" style="rounded=0;whiteSpace=wrap;html=1;" vertex="1" parent="1">
          <mxGeometry x="2287.5" y="155" width="155" height="40" as="geometry" />
        </mxCell>
        <mxCell id="Fgh959vgi-olLZx6snVr-133" style="edgeStyle=orthogonalEdgeStyle;rounded=0;orthogonalLoop=1;jettySize=auto;html=1;exitX=0.5;exitY=1;exitDx=0;exitDy=0;" edge="1" parent="1" source="Fgh959vgi-olLZx6snVr-130" target="Fgh959vgi-olLZx6snVr-131">
          <mxGeometry relative="1" as="geometry" />
        </mxCell>
        <mxCell id="Fgh959vgi-olLZx6snVr-130" value="搜索上一周期已发送红包未领取状态" style="rounded=0;whiteSpace=wrap;html=1;" vertex="1" parent="1">
          <mxGeometry x="2288.5" y="227.5" width="152" height="50" as="geometry" />
        </mxCell>
        <mxCell id="Fgh959vgi-olLZx6snVr-131" value="批量退回&lt;br&gt;并发送邮件" style="rounded=0;whiteSpace=wrap;html=1;" vertex="1" parent="1">
          <mxGeometry x="2290.5" y="310" width="149" height="45" as="geometry" />
        </mxCell>
        <mxCell id="Fgh959vgi-olLZx6snVr-136" style="edgeStyle=orthogonalEdgeStyle;rounded=0;orthogonalLoop=1;jettySize=auto;html=1;exitX=0.5;exitY=1;exitDx=0;exitDy=0;entryX=0.5;entryY=0;entryDx=0;entryDy=0;" edge="1" parent="1" source="Fgh959vgi-olLZx6snVr-134" target="Fgh959vgi-olLZx6snVr-73">
          <mxGeometry relative="1" as="geometry" />
        </mxCell>
        <mxCell id="Fgh959vgi-olLZx6snVr-134" value="活动是否有效" style="rhombus;whiteSpace=wrap;html=1;" vertex="1" parent="1">
          <mxGeometry x="1705.25" y="155" width="157.5" height="65" as="geometry" />
        </mxCell>
        <mxCell id="Fgh959vgi-olLZx6snVr-137" style="edgeStyle=orthogonalEdgeStyle;rounded=0;orthogonalLoop=1;jettySize=auto;html=1;exitX=1;exitY=0.5;exitDx=0;exitDy=0;" edge="1" parent="1" target="Fgh959vgi-olLZx6snVr-138">
          <mxGeometry relative="1" as="geometry">
            <mxPoint x="1863.25" y="188" as="sourcePoint" />
          </mxGeometry>
        </mxCell>
        <mxCell id="Fgh959vgi-olLZx6snVr-138" value="失败：参数错误" style="rounded=0;whiteSpace=wrap;html=1;" vertex="1" parent="1">
          <mxGeometry x="1929" y="158" width="120" height="60" as="geometry" />
        </mxCell>
        <mxCell id="Fgh959vgi-olLZx6snVr-139" value="否" style="text;html=1;align=center;verticalAlign=middle;resizable=0;points=[];autosize=1;strokeColor=none;fillColor=none;" vertex="1" parent="1">
          <mxGeometry x="1862.75" y="155" width="40" height="30" as="geometry" />
        </mxCell>
      </root>
    </mxGraphModel>
  </diagram>
</mxfile>
